<?xml version="1.0" encoding="utf-8"?>

<svg xmlns="http://www.w3.org/2000/svg">

  <style>
    :root > svg {
      display:none;
    }
    :root > svg:target {
      display:block;
    }
  </style>

  <svg id="cat-energy-logo" viewBox="0 0 33 38" fill="none" xmlns="http://www.w3.org/2000/svg">
    <g clip-path="url(#clip0_153_278)">
      <path d="M6.07 20.72V18.46C12.7536 17.5423 19.4937 17.0979 26.24 17.13C26.24 17.73 26.24 18.34 26.18 18.95C28.0976 18.099 30.1128 17.4877 32.18 17.13C30.8625 13.722 28.4618 10.8412 25.3471 8.93087C22.2324 7.02052 18.5764 6.1864 14.9414 6.55683C11.3064 6.92727 7.89379 8.48172 5.22852 10.9811C2.56325 13.4804 0.792969 16.7863 0.190001 20.39L6.07 20.72Z" fill="#FDC305"/>
      <path d="M27.24 24.23C26.08 25.51 25.85 25.43 25.85 27.68C25.85 28.59 25.85 32.58 25.85 36.86C28.1425 35.346 30.0245 33.2879 31.328 30.8694C32.6315 28.4509 33.3158 25.7474 33.32 23C33.3068 21.9591 33.1997 20.9216 33 19.9C30.9282 21.1295 28.9967 22.5814 27.24 24.23Z" fill="#FDC305"/>
      <path d="M6.36 25.72C6.36 25.72 2.57 24.28 1.17 23.89C0.787067 23.7693 0.396097 23.6757 0 23.61C0.108395 26.496 0.965588 29.3041 2.48739 31.7586C4.00919 34.2131 6.14326 36.2296 8.68 37.61L6.36 25.72Z" fill="#FDC305"/>
      <path d="M26.29 17.12C26.3307 11.5986 25.862 6.08528 24.89 0.65C24.89 0.65 24.75 -0.64 24 0.41C23.4109 1.65814 23.0067 2.98539 22.8 4.35C18.5418 4.07577 14.2675 4.18957 10.03 4.69C9.24 2 7.85 0.75 7.18 1C6.51 1.25 6.46 4.31 6.46 4.31L6.13 18.41C12.8113 17.506 19.548 17.0749 26.29 17.12Z" fill="#F06351"/>
      <path d="M12.41 14C12.41 13.91 13.41 14.68 13.82 14.92C14.23 15.16 14.43 15.34 14.43 15.51C14.43 15.68 14.16 15.85 13.8 15.85C13.44 15.85 12.89 15.73 12.8 15.58H13.74H14.03C13.4207 15.1294 12.8757 14.5978 12.41 14Z" fill="black"/>
      <path d="M19.89 14.11L18.8 15.44C18.8 15.5 18.63 15.79 18.98 15.74C19.3942 15.6783 19.8023 15.5812 20.2 15.45C20.31 15.45 20.27 15.26 20.09 15.28C19.91 15.3 19.4 15.33 19.09 15.39L19.93 14.13C19.93 14.13 20 14 19.89 14.11Z" fill="black"/>
      <path d="M16.75 20.2C17.2135 19.9958 17.5967 19.6443 17.84 19.2C18.12 18.55 17.84 18.29 17.4 18.2C16.7979 18.0902 16.1765 18.2116 15.66 18.54C15.27 18.9 15.32 19.26 15.61 19.54C15.9613 19.8062 16.3442 20.0279 16.75 20.2Z" fill="black"/>
      <path d="M16.35 21.45C16.2379 21.6785 16.0816 21.8825 15.89 22.05C15.6052 22.2791 15.2551 22.4122 14.89 22.43C14.3638 22.472 13.8406 22.3189 13.42 22C13.2222 21.8808 13.0436 21.7324 12.89 21.56C12.7895 21.4491 12.6669 21.3605 12.53 21.3C12.53 21.3 13.28 25.4 15.1 26.05C16.92 26.7 17.24 25.3 17.3 24.92C17.3601 23.7851 17.0742 22.6588 16.48 21.69C16.46 21.38 16.45 21.58 16.35 21.45Z" fill="#F06351"/>
      <path d="M14.71 22.59C14.2453 22.5247 13.7989 22.3651 13.3982 22.1209C12.9975 21.8767 12.651 21.5531 12.38 21.17C12.3667 21.157 12.3561 21.1414 12.3489 21.1242C12.3417 21.1071 12.338 21.0886 12.338 21.07C12.338 21.0514 12.3417 21.0329 12.3489 21.0158C12.3561 20.9986 12.3667 20.983 12.38 20.97C12.393 20.9567 12.4086 20.9461 12.4258 20.9389C12.4429 20.9317 12.4614 20.928 12.48 20.928C12.4986 20.928 12.5171 20.9317 12.5342 20.9389C12.5514 20.9461 12.567 20.9567 12.58 20.97C13.0848 21.6642 13.843 22.1313 14.69 22.27C15.0217 22.245 15.3426 22.1413 15.6261 21.9674C15.9096 21.7934 16.1475 21.5544 16.32 21.27L16.46 21.08L16.56 21.29C16.56 21.29 16.93 22.05 17.56 22.09C18.19 22.13 18.61 21.68 19.17 20.81C19.183 20.7967 19.1986 20.7861 19.2158 20.7789C19.2329 20.7717 19.2514 20.768 19.27 20.768C19.2886 20.768 19.3071 20.7717 19.3242 20.7789C19.3414 20.7861 19.357 20.7967 19.37 20.81C19.4023 20.8306 19.4255 20.8629 19.4348 20.9C19.4441 20.9372 19.4388 20.9766 19.42 21.01C18.78 22.01 18.15 22.45 17.54 22.41C17.308 22.3763 17.0867 22.2904 16.8927 22.1587C16.6987 22.0271 16.5371 21.8531 16.42 21.65C16.2233 21.9245 15.9676 22.1514 15.6717 22.3141C15.3758 22.4767 15.0471 22.571 14.71 22.59Z" fill="black"/>
      <path d="M26.24 18.92C24.4445 20.5437 22.7512 22.277 21.17 24.11C19.5986 25.9361 17.8238 27.5768 15.88 29C15.66 28.47 14.26 27.49 14.26 27.49C14.26 27.49 11.13 25.35 9.08 23.67C7.97414 22.7373 6.9287 21.7353 5.95 20.67L3.95 20.56C6.84018 24.7655 11.0702 27.8676 15.95 29.36C16.81 29.22 19.22 27.5 21.02 26.1C23.1389 24.2819 25.124 22.3134 26.96 20.21C27.4625 19.621 27.8493 18.9425 28.1 18.21C27 18.6 26.24 18.92 26.24 18.92Z" fill="#F06351"/>
    </g>
    <defs>
      <clipPath id="clip0_153_278">
        <rect width="33" height="38" fill="white"/>
      </clipPath>
    </defs>
  </svg>

  <svg id="cat-energy-logo--tablet" viewBox="0 0 60 50" fill="none" xmlns="http://www.w3.org/2000/svg">
    <g clip-path="url(#clip0_2403_1722)">
      <path d="M51.5819 18.854C50.0969 15.265 47.7053 12.1312 44.6456 9.76494C41.5858 7.39869 37.9646 5.88262 34.143 5.36781C30.3214 4.85301 26.4328 5.35745 22.8646 6.83086C19.2965 8.30427 16.1735 10.6952 13.8068 13.7654C11.4402 16.8355 9.9125 20.4777 9.37609 24.329C8.83968 28.1802 9.31325 32.106 10.7496 35.7151C12.186 39.3242 14.535 42.4906 17.5625 44.8987C20.59 47.3068 24.1903 48.8726 28.0046 49.4399C27.505 47.6238 26.9967 45.6166 26.5488 43.4878C27.8519 44.3405 29.2235 45.0816 30.6492 45.7035V45.7035C30.6492 45.7035 30.7526 47.5804 30.8904 49.6745C32.4308 49.7013 33.9698 49.5644 35.4818 49.2661C35.4427 49.0477 35.4427 48.8241 35.4818 48.6057C35.7316 46.9808 36.4208 44.0526 36.5586 42.167C37.552 41.2297 38.3948 40.1421 39.0567 38.9434V38.9434L39.005 39.3257C38.5313 43.0273 37.5406 46.9808 36.9376 48.0757C36.7424 48.4381 36.5021 48.7739 36.2226 49.0749C39.3408 48.3371 42.2626 46.924 44.7855 44.9336C47.3083 42.9433 49.3718 40.4233 50.8329 37.5484C52.2941 34.6735 53.1179 31.5124 53.2472 28.2843C53.3765 25.0563 52.8083 21.8385 51.5819 18.854V18.854ZM50.3156 22.1472C49.9366 22.5208 49.1527 22.7728 49.0235 21.6432C48.8942 20.5136 48.8598 19.7229 48.8598 19.7229C48.8598 19.7229 47.1972 16.7425 46.577 16.7078C45.9568 16.673 41.5549 19.7229 40.3919 21.0524C39.3841 22.1733 39.1859 22.0951 39.1859 24.0675C39.1859 25.5534 39.3755 31.1666 39.2721 35.459L32.2514 37.3446C30.0448 37.9834 27.8007 38.4825 25.5323 38.8391L24.6709 33.7733H24.5503L22.3364 22.3297C22.3364 22.3297 19.0543 21.0784 17.8483 20.7396C17.2821 20.4897 16.6568 20.4084 16.0462 20.5054C15.4356 20.6024 14.8653 20.8736 14.4026 21.287C13.9306 21.7039 13.5531 22.2185 13.296 22.7958C13.0388 23.373 12.908 23.9994 12.9124 24.6323C13.0945 25.0362 13.2331 25.4585 13.3258 25.8922C13.3689 26.3093 12.2921 26.2659 11.603 26.2659C10.9138 26.2659 10.8105 25.0146 11.3532 23.5462C11.7766 22.417 12.3013 21.3292 12.921 20.2964C13.387 19.3738 13.9881 18.5273 14.7041 17.7852C14.7041 17.7852 14.8247 17.4898 15.7809 17.5767C16.7371 17.6636 22.0521 17.9503 22.0521 17.9503L22.0952 15.9779C27.8722 15.1733 33.6987 14.7842 39.5305 14.8135C39.5305 15.3436 39.5305 15.8736 39.5305 16.4037C41.7394 15.3869 44.118 14.7974 46.5425 14.6658C46.6723 14.6625 46.8008 14.6917 46.9166 14.7509C47.0323 14.81 47.1317 14.8972 47.2058 15.0047C47.4987 15.3783 49.2819 17.6115 49.4886 17.933C50.0677 18.7677 50.5942 19.6383 51.065 20.5397C50.9037 21.1104 50.6505 21.6505 50.3156 22.1385V22.1472Z" fill="#FDC305"/>
      <path d="M48.6363 16.8294C49.0411 17.3508 49.3943 17.8113 49.4977 17.9503C50.0768 18.7851 50.6033 19.6557 51.0741 20.5571C50.9102 21.1091 50.6601 21.6312 50.3333 22.1038C49.9543 22.4774 49.1704 22.7294 49.0411 21.5998C48.9119 20.4702 48.8602 19.7229 48.8602 19.7229C48.8602 19.7229 47.1977 16.7425 46.5775 16.7078C45.9572 16.673 41.5553 19.7229 40.3924 21.0524C39.3845 22.1733 39.1864 22.0951 39.1864 24.0675C39.1864 25.3709 39.3328 29.8458 39.2984 33.8254C40.8576 33.9992 43.149 34.4337 43.8381 35.459C43.8381 35.459 43.5883 29.2202 50.5659 32.4873C50.5659 32.4873 50.8071 23.9806 60.4378 26.1616C57.1639 22.2844 53.1505 19.1107 48.6363 16.8294V16.8294Z" fill="#F06351"/>
      <path d="M39.5654 14.8135C39.6005 9.99865 39.1968 5.1907 38.3594 0.450345C38.3594 0.450345 38.2302 -0.679246 37.61 0.241805C37.0982 1.34291 36.7499 2.51402 36.5763 3.71747C32.8938 3.47914 29.1975 3.57802 25.5328 4.0129C24.8264 1.62338 23.6204 0.537237 23.0432 0.823979C22.4661 1.11072 22.3972 3.67403 22.3972 3.67403L22.1129 15.9779C27.8956 15.1725 33.7279 14.7834 39.5654 14.8135V14.8135Z" fill="#F06351"/>
      <path d="M39.0651 38.9434C39.1771 38.0136 39.2374 36.7798 39.2719 35.4156L32.2516 37.3011C30.0459 37.9546 27.8019 38.4682 25.5327 38.8391L26.4889 43.1837C26.4889 43.2793 26.4889 43.3748 26.5492 43.4704C27.8522 44.3231 29.2238 45.0642 30.6494 45.6862C32.7328 44.6815 34.7171 43.4799 36.5757 42.0975V42.1497C37.5647 41.217 38.4044 40.1354 39.0651 38.9434V38.9434Z" fill="#E55645"/>
      <path d="M27.5657 12.0938C27.5227 12.0069 28.4271 12.6847 28.7803 12.8932C29.1334 13.1018 29.3057 13.2582 29.3057 13.4059C29.3057 13.5536 29.0818 13.7013 28.7717 13.7013C28.4616 13.7013 27.9792 13.5971 27.9103 13.4754C27.8414 13.3538 28.4271 13.4754 28.72 13.4754H28.9698C28.4395 13.084 27.9667 12.6189 27.5657 12.0938Z" fill="black"/>
      <path d="M34.0264 12.1894C34.0264 12.1894 33.165 13.3016 33.0875 13.3538C33.0099 13.4059 32.941 13.6492 33.2511 13.6057C33.6071 13.5521 33.9585 13.4708 34.302 13.3624C34.3968 13.3103 34.3623 13.1887 34.1986 13.206C34.035 13.2234 33.6129 13.2495 33.3373 13.3016L34.0694 12.1981C34.0694 12.1981 34.0953 12.0938 34.0264 12.1894Z" fill="black"/>
      <path d="M31.3215 17.4985C31.7208 17.321 32.0508 17.0156 32.2604 16.6296C32.5016 16.0561 32.2604 15.8389 31.8814 15.7607C31.36 15.6647 30.8218 15.7702 30.374 16.0561C30.038 16.3776 30.0811 16.6904 30.374 16.925C30.6649 17.1552 30.9832 17.3478 31.3215 17.4985V17.4985Z" fill="black"/>
      <path d="M31.0113 18.5933C30.9124 18.7904 30.778 18.9672 30.615 19.1147C30.3697 19.3138 30.0682 19.4294 29.7537 19.4449C29.2794 19.4918 28.8052 19.3552 28.4271 19.0625C28.2535 18.9601 28.099 18.8278 27.9706 18.6715C27.8844 18.5769 27.7785 18.5027 27.6605 18.4543C27.6605 18.4543 28.3065 22.0255 29.8743 22.599C31.442 23.1725 31.7348 21.9387 31.7779 21.6085C31.8304 20.6196 31.5841 19.6379 31.0716 18.7932C31.0716 18.5325 31.0544 18.7063 31.0113 18.5933Z" fill="#F06351"/>
      <path d="M29.5469 19.5839C29.1438 19.5254 28.7566 19.3852 28.4087 19.1716C28.0608 18.9581 27.7594 18.6756 27.5226 18.3413C27.5015 18.3174 27.4897 18.2865 27.4897 18.2544C27.4897 18.2224 27.5015 18.1915 27.5226 18.1676C27.5339 18.156 27.5473 18.1468 27.5621 18.1405C27.5769 18.1343 27.5927 18.131 27.6088 18.131C27.6248 18.131 27.6407 18.1343 27.6555 18.1405C27.6703 18.1468 27.6837 18.156 27.6949 18.1676C27.9081 18.4692 28.1785 18.7252 28.4905 18.9206C28.8025 19.116 29.1499 19.2469 29.5124 19.3058C29.7993 19.2841 30.0769 19.194 30.3225 19.0429C30.5681 18.8919 30.7746 18.6842 30.9251 18.4369L31.0457 18.2718L31.1319 18.463C31.1319 18.463 31.4592 19.1234 31.9932 19.1581C32.5273 19.1929 32.9063 18.7932 33.3973 18.0372C33.4156 18.0096 33.444 17.9904 33.4763 17.9838C33.5086 17.9773 33.5422 17.984 33.5696 18.0025C33.597 18.0209 33.616 18.0496 33.6225 18.0822C33.6289 18.1147 33.6223 18.1486 33.604 18.1762C33.0298 19.0278 32.4871 19.4362 31.976 19.4014C31.7785 19.375 31.5893 19.3043 31.4224 19.1946C31.2554 19.0848 31.115 18.9388 31.0113 18.7671C30.8427 19.0045 30.6238 19.201 30.3705 19.3423C30.1172 19.4836 29.8358 19.5661 29.5469 19.5839Z" fill="black"/>
      <path d="M31.2353 31.2795C33.0192 31.2795 34.4655 29.8207 34.4655 28.0211C34.4655 26.2215 33.0192 24.7626 31.2353 24.7626C29.4513 24.7626 28.0051 26.2215 28.0051 28.0211C28.0051 29.8207 29.4513 31.2795 31.2353 31.2795Z" fill="#FDC305"/>
      <path d="M35.5163 25.3709L32.8202 26.5092L33.8108 21.6172L27.3504 30.0978L30.0465 28.9595L29.0559 33.8602L35.5163 25.3709ZM29.1507 28.6988L32.734 23.998L32.0363 27.4737L33.7591 26.7611L30.1499 31.4707L30.8476 27.995L29.1507 28.6988Z" fill="#111111"/>
      <path d="M27.9447 27.4215C28.4775 27.4215 28.9095 26.9858 28.9095 26.4483C28.9095 25.9109 28.4775 25.4751 27.9447 25.4751C27.4119 25.4751 26.9799 25.9109 26.9799 26.4483C26.9799 26.9858 27.4119 27.4215 27.9447 27.4215Z" fill="#111111"/>
      <path d="M33.5612 30.9493C33.9371 30.9493 34.2417 30.642 34.2417 30.2629C34.2417 29.8838 33.9371 29.5764 33.5612 29.5764C33.1854 29.5764 32.8807 29.8838 32.8807 30.2629C32.8807 30.642 33.1854 30.9493 33.5612 30.9493Z" fill="#111111"/>
      <path d="M34.3882 29.0638C34.5547 29.0638 34.6897 28.9276 34.6897 28.7597C34.6897 28.5917 34.5547 28.4555 34.3882 28.4555C34.2217 28.4555 34.0867 28.5917 34.0867 28.7597C34.0867 28.9276 34.2217 29.0638 34.3882 29.0638Z" fill="#111111"/>
      <path d="M39.5224 16.3863C37.9674 17.8002 36.5029 19.3123 35.1377 20.9133C33.7778 22.5028 32.2433 23.9312 30.5635 25.171C30.374 24.7105 29.1594 23.8503 29.1594 23.8503C29.1594 23.8503 26.4545 21.9821 24.6799 20.5136C23.7207 19.7077 22.8169 18.8368 21.9751 17.9069L20.2522 17.8113C22.7392 21.4757 26.3826 24.183 30.5893 25.4925C31.3302 25.3709 33.4148 23.8677 34.974 22.6425C36.8187 21.0601 38.5461 19.3437 40.1426 17.5072C40.5717 16.9928 40.9044 16.4039 41.1246 15.7693C40.1426 16.0995 39.5224 16.3863 39.5224 16.3863Z" fill="#F06351"/>
      <path d="M22.3368 22.3297C22.3368 22.3297 19.0548 21.0784 17.8488 20.7396C17.2825 20.4897 16.6572 20.4084 16.0467 20.5054C15.4361 20.6024 14.8658 20.8736 14.4031 21.287C13.931 21.7039 13.5536 22.2185 13.2964 22.7958C13.0393 23.373 12.9084 23.9994 12.9128 24.6323C13.0949 25.0362 13.2335 25.4585 13.3263 25.8922C13.3694 26.3093 12.2926 26.2659 11.6034 26.2659C10.9143 26.2659 10.8109 25.0146 11.3536 23.5462C11.777 22.417 12.3018 21.3292 12.9214 20.2964C8.22664 22.7641 0 28.4642 0 28.4642C2.35316 28.3211 4.71429 28.3909 7.0551 28.6728C11.5776 29.1333 11.3622 32.7306 11.3622 32.7306C12.9529 32.2883 14.574 31.9659 16.2121 31.7661C18.0383 31.6445 18.1675 33.6082 18.1675 33.6082L18.6241 36.9622C19.3173 36.2057 20.0819 35.5189 20.9069 34.9116C21.9703 34.0529 23.3243 33.6476 24.6799 33.782V33.782L22.3368 22.3297Z" fill="#F06351"/>
    </g>
    <defs>
      <clipPath id="clip0_2403_1722">
        <rect width="60" height="50" fill="white"/>
      </clipPath>
    </defs>
  </svg>

  <svg id="cat-energy-logo--desktop" viewBox="0 0 70 60" fill="none" xmlns="http://www.w3.org/2000/svg">
    <g clip-path="url(#clip0_2403_2170)">
      <path d="M59.88 25C58.1561 20.8695 55.3798 17.263 51.8279 14.5398C48.2759 11.8166 44.0722 10.0718 39.6359 9.47931C35.1995 8.88684 30.6853 9.46738 26.5432 11.1631C22.4011 12.8588 18.7757 15.6104 16.0283 19.1437C13.281 22.677 11.5076 26.8687 10.8849 31.3009C10.2622 35.7332 10.8119 40.2512 12.4793 44.4048C14.1468 48.5583 16.8736 52.2024 20.3881 54.9738C23.9026 57.7452 28.0821 59.5471 32.51 60.2C31.93 58.11 31.34 55.8 30.82 53.35C32.3328 54.3313 33.925 55.1843 35.58 55.9V55.9C35.58 55.9 35.7 58.06 35.86 60.47C37.6482 60.5008 39.4347 60.3433 41.19 60C41.1447 59.7487 41.1447 59.4913 41.19 59.24C41.48 57.37 42.28 54 42.44 51.83C43.5933 50.7513 44.5716 49.4996 45.34 48.12V48.12L45.28 48.56C44.73 52.82 43.58 57.37 42.88 58.63C42.6534 59.0471 42.3745 59.4335 42.05 59.78C45.6698 58.9308 49.0616 57.3046 51.9903 55.014C54.9189 52.7233 57.3144 49.8232 59.0106 46.5146C60.7067 43.2059 61.663 39.568 61.8132 35.853C61.9633 32.1379 61.3037 28.4347 59.88 25V25ZM58.41 28.79C57.97 29.22 57.06 29.51 56.91 28.21C56.76 26.91 56.72 26 56.72 26C56.72 26 54.79 22.57 54.07 22.53C53.35 22.49 48.24 26 46.89 27.53C45.72 28.82 45.49 28.73 45.49 31C45.49 32.71 45.71 39.17 45.59 44.11L37.44 46.28C34.8783 47.0152 32.2733 47.5896 29.64 48L28.64 42.17H28.5L25.93 29C25.93 29 22.12 27.56 20.72 27.17C20.0626 26.8824 19.3367 26.7889 18.6279 26.9005C17.9192 27.0122 17.2571 27.3243 16.72 27.8C16.172 28.2798 15.7338 28.872 15.4353 29.5364C15.1368 30.2008 14.9849 30.9217 14.99 31.65C15.2014 32.1148 15.3623 32.6009 15.47 33.1C15.52 33.58 14.27 33.53 13.47 33.53C12.67 33.53 12.55 32.09 13.18 30.4C13.6715 29.1005 14.2807 27.8486 15 26.66C15.541 25.5982 16.2388 24.624 17.07 23.77C17.07 23.77 17.21 23.43 18.32 23.53C19.43 23.63 25.6 23.96 25.6 23.96L25.65 21.69C32.3564 20.764 39.1201 20.3162 45.89 20.35C45.89 20.96 45.89 21.57 45.89 22.18C48.4543 21.0098 51.2154 20.3314 54.03 20.18C54.1806 20.1762 54.3298 20.2098 54.4642 20.2779C54.5986 20.346 54.714 20.4463 54.8 20.57C55.14 21 57.21 23.57 57.45 23.94C58.1222 24.9007 58.7334 25.9027 59.28 26.94C59.0926 27.5968 58.7987 28.2184 58.41 28.78V28.79Z" fill="#FDC305"/>
      <path d="M56.46 22.67C56.93 23.27 57.34 23.8 57.46 23.96C58.1322 24.9207 58.7434 25.9227 59.29 26.96C59.0997 27.5953 58.8094 28.1961 58.43 28.74C57.99 29.17 57.08 29.46 56.93 28.16C56.78 26.86 56.72 26 56.72 26C56.72 26 54.79 22.57 54.07 22.53C53.35 22.49 48.24 26 46.89 27.53C45.72 28.82 45.49 28.73 45.49 31C45.49 32.5 45.66 37.65 45.62 42.23C47.43 42.43 50.09 42.93 50.89 44.11C50.89 44.11 50.6 36.93 58.7 40.69C58.7 40.69 58.98 30.9 70.16 33.41C66.3594 28.9478 61.7004 25.2955 56.46 22.67V22.67Z" fill="#F06351"/>
      <path d="M45.93 20.35C45.9707 14.8087 45.502 9.27548 44.53 3.82C44.53 3.82 44.38 2.52 43.66 3.58C43.0659 4.84722 42.6615 6.195 42.46 7.58C38.1852 7.30571 33.8943 7.41951 29.64 7.92C28.82 5.17 27.42 3.92 26.75 4.25C26.08 4.58 26 7.53 26 7.53L25.67 21.69C32.383 20.7631 39.1534 20.3153 45.93 20.35V20.35Z" fill="#F06351"/>
      <path d="M45.35 48.12C45.48 47.05 45.55 45.63 45.59 44.06L37.44 46.23C34.8794 46.982 32.2744 47.5732 29.64 48L30.75 53C30.75 53.11 30.75 53.22 30.82 53.33C32.3328 54.3113 33.925 55.1643 35.58 55.88C37.9987 54.7238 40.3023 53.341 42.46 51.75V51.81C43.6081 50.7366 44.583 49.4918 45.35 48.12V48.12Z" fill="#E55645"/>
      <path d="M32 17.22C31.95 17.12 33 17.9 33.41 18.14C33.82 18.38 34.02 18.56 34.02 18.73C34.02 18.9 33.76 19.07 33.4 19.07C33.04 19.07 32.48 18.95 32.4 18.81C32.32 18.67 33 18.81 33.34 18.81H33.63C33.0143 18.3596 32.4656 17.8243 32 17.22Z" fill="black"/>
      <path d="M39.5 17.33C39.5 17.33 38.5 18.61 38.41 18.67C38.32 18.73 38.24 19.01 38.6 18.96C39.0133 18.8983 39.4212 18.8047 39.82 18.68C39.93 18.62 39.89 18.48 39.7 18.5C39.51 18.52 39.02 18.55 38.7 18.61L39.55 17.34C39.55 17.34 39.58 17.22 39.5 17.33Z" fill="black"/>
      <path d="M36.36 23.44C36.8235 23.2358 37.2067 22.8843 37.45 22.44C37.73 21.78 37.45 21.53 37.01 21.44C36.4047 21.3296 35.7799 21.4509 35.26 21.78C34.87 22.15 34.92 22.51 35.26 22.78C35.5978 23.0449 35.9673 23.2666 36.36 23.44V23.44Z" fill="black"/>
      <path d="M36 24.7C35.8852 24.9268 35.7292 25.1302 35.54 25.3C35.2552 25.5291 34.9051 25.6622 34.54 25.68C33.9894 25.734 33.4389 25.5768 33 25.24C32.7984 25.1221 32.619 24.9698 32.47 24.79C32.37 24.6811 32.247 24.5957 32.11 24.54C32.11 24.54 32.86 28.65 34.68 29.31C36.5 29.97 36.84 28.55 36.89 28.17C36.9509 27.0319 36.665 25.9021 36.07 24.93C36.07 24.63 36.05 24.83 36 24.7Z" fill="#F06351"/>
      <path d="M34.3 25.84C33.832 25.7727 33.3825 25.6113 32.9786 25.3656C32.5747 25.1198 32.2248 24.7947 31.95 24.41C31.9254 24.3825 31.9118 24.3469 31.9118 24.31C31.9118 24.2731 31.9254 24.2375 31.95 24.21C31.963 24.1967 31.9786 24.1861 31.9958 24.1789C32.0129 24.1717 32.0314 24.168 32.05 24.168C32.0686 24.168 32.0871 24.1717 32.1042 24.1789C32.1214 24.1861 32.137 24.1967 32.15 24.21C32.3975 24.5572 32.7114 24.8517 33.0736 25.0766C33.4358 25.3015 33.8391 25.4522 34.26 25.52C34.593 25.495 34.9153 25.3913 35.2004 25.2174C35.4855 25.0436 35.7253 24.8046 35.9 24.52L36.04 24.33L36.14 24.55C36.14 24.55 36.52 25.31 37.14 25.35C37.76 25.39 38.2 24.93 38.77 24.06C38.7912 24.0282 38.8242 24.0061 38.8617 23.9986C38.8992 23.9911 38.9382 23.9988 38.97 24.02C39.0018 24.0412 39.0239 24.0742 39.0314 24.1117C39.0389 24.1492 39.0312 24.1882 39.01 24.22C38.3433 25.2 37.7133 25.67 37.12 25.63C36.8907 25.5996 36.6711 25.5183 36.4772 25.392C36.2834 25.2656 36.1204 25.0975 36 24.9C35.8043 25.1732 35.5502 25.3994 35.2561 25.562C34.9621 25.7246 34.6354 25.8196 34.3 25.84Z" fill="black"/>
      <path d="M36.26 39.3C38.3311 39.3 40.01 37.6211 40.01 35.55C40.01 33.4789 38.3311 31.8 36.26 31.8C34.1889 31.8 32.51 33.4789 32.51 35.55C32.51 37.6211 34.1889 39.3 36.26 39.3Z" fill="#FDC305"/>
      <path d="M41.23 32.5L38.1 33.81L39.25 28.18L31.75 37.94L34.88 36.63L33.73 42.27L41.23 32.5ZM33.84 36.33L38 30.92L37.19 34.92L39.19 34.1L35 39.52L35.81 35.52L33.84 36.33Z" fill="#111111"/>
      <path d="M32.44 34.86C33.0586 34.86 33.56 34.3586 33.56 33.74C33.56 33.1214 33.0586 32.62 32.44 32.62C31.8214 32.62 31.32 33.1214 31.32 33.74C31.32 34.3586 31.8214 34.86 32.44 34.86Z" fill="#111111"/>
      <path d="M38.96 38.92C39.3963 38.92 39.75 38.5663 39.75 38.13C39.75 37.6937 39.3963 37.34 38.96 37.34C38.5237 37.34 38.17 37.6937 38.17 38.13C38.17 38.5663 38.5237 38.92 38.96 38.92Z" fill="#111111"/>
      <path d="M39.92 36.75C40.1133 36.75 40.27 36.5933 40.27 36.4C40.27 36.2067 40.1133 36.05 39.92 36.05C39.7267 36.05 39.57 36.2067 39.57 36.4C39.57 36.5933 39.7267 36.75 39.92 36.75Z" fill="#111111"/>
      <path d="M45.88 22.16C44.0749 23.7873 42.3748 25.5274 40.79 27.37C39.2114 29.1993 37.43 30.8432 35.48 32.27C35.26 31.74 33.85 30.75 33.85 30.75C33.85 30.75 30.71 28.6 28.65 26.91C27.5364 25.9825 26.4873 24.9802 25.51 23.91L23.51 23.8C26.397 28.0172 30.6265 31.1329 35.51 32.64C36.37 32.5 38.79 30.77 40.6 29.36C42.7414 27.5389 44.7467 25.5636 46.6 23.45C47.0981 22.858 47.4844 22.1803 47.74 21.45C46.6 21.83 45.88 22.16 45.88 22.16Z" fill="#F06351"/>
      <path d="M65.22 4.5L56.76 13.94L55.54 11.95L63.69 1L65.22 4.5Z" fill="#FDC305"/>
      <path d="M62.65 18.26L68.19 14.15L67.41 10.41L62.01 15.22L62.65 18.26Z" fill="#FDC305"/>
      <path d="M59.92 50.37L66.05 53.55L69.06 51.21L62.37 48.46L59.92 50.37Z" fill="#FDC305"/>
      <path d="M1.95 6.97L5.02 3.61L14.31 12.61L13.09 14.89L1.95 6.97Z" fill="#FDC305"/>
      <path d="M7.38 17.28L2.68 14.15L0.279999 18.02L5.43 20.42L7.38 17.28Z" fill="#FDC305"/>
      <path d="M13.91 53.55L9.36 56.9L12.16 60.48L16.18 56.46L13.91 53.55Z" fill="#FDC305"/>
      <path d="M25.93 29C25.93 29 22.12 27.56 20.72 27.17C20.0626 26.8824 19.3367 26.7889 18.6279 26.9005C17.9192 27.0122 17.2571 27.3243 16.72 27.8C16.172 28.2798 15.7338 28.8721 15.4353 29.5364C15.1368 30.2008 14.9849 30.9217 14.99 31.65C15.2014 32.1148 15.3623 32.6009 15.47 33.1C15.52 33.58 14.27 33.53 13.47 33.53C12.67 33.53 12.55 32.09 13.18 30.4C13.6715 29.1005 14.2807 27.8486 15 26.66C9.55 29.5 0 36.06 0 36.06C2.73169 35.8953 5.47264 35.9756 8.19 36.3C13.44 36.83 13.19 40.97 13.19 40.97C15.0366 40.4609 16.9184 40.0899 18.82 39.86C20.94 39.72 21.09 41.98 21.09 41.98L21.62 45.84C22.4248 44.9693 23.3123 44.1789 24.27 43.48C25.5045 42.4918 27.0763 42.0253 28.65 42.18V42.18L25.93 29Z" fill="#F06351"/>
    </g>
    <defs>
      <clipPath id="clip0_2403_2170">
        <rect width="70" height="60" fill="white"/>
      </clipPath>
    </defs>
  </svg>

  <svg id="cat-energy" viewBox="0 0 102 19" xmlns="http://www.w3.org/2000/svg">
    <path d="M2.26 16.54A6.86 6.86 0 0 1 1 12.24v-6.4c-.1-1.54.3-3.08 1.19-4.38C3.05.46 4.39 0 6.37 0c1.98 0 3.24.46 4.03 1.3a5.42 5.42 0 0 1 1.19 3.78v1.54H7.72V4.85a3.7 3.7 0 0 0-.24-1.54 1.16 1.16 0 0 0-1.1-.62c-.56 0-.95.16-1.11.54a4.85 4.85 0 0 0-.24 1.7v8.22c-.04.56.07 1.12.32 1.62.15.38.55.54 1.1.54.56 0 .87-.16 1.03-.54.18-.52.26-1.07.24-1.62v-1.84h3.87v1.54a5.77 5.77 0 0 1-1.19 3.84c-.79.93-2.13 1.39-4.03 1.39-1.9-.08-3.32-.54-4.1-1.54zM16.25.23h4.5l3.33 17.54h-3.64l-.63-3.7h-2.6l-.64 3.7h-3.72L16.25.23zm3.24 11.54l-.95-6.85-.94 6.85h1.9zM26.84 3.15h-2.68V.23h9.4v2.85h-2.69v14.69h-4.03V3.15z" fill="#111"/>
    <path d="M47.7.23v1.85h-4.5v5.77h3.64v1.77H43.2v6.46h4.5v1.77h-7.03V.23h7.04zM49.76.23h1.74l5.14 11.62V.23h2.05v17.54h-1.58l-5.21-12v12h-2.14V.23zM61.06.23h6.96v1.85h-4.5v5.77h3.63v1.77H63.5v6.46h4.5v1.77h-6.95V.23zM73.7.23c1.44-.1 2.86.28 4.04 1.08C78.6 2 79 3.23 79 4.85c0 2.23-.7 3.61-2.21 4.07l2.53 8.77h-2.45L74.5 9.46h-1.98v8.23H70V.23h3.72zm-.15 7.54c.81.06 1.63-.15 2.3-.62.47-.38.7-1.15.7-2.3a4.85 4.85 0 0 0-.23-1.7c-.18-.39-.49-.71-.87-.92a3.69 3.69 0 0 0-1.74-.3h-1.1v5.76h.94v.08zM82.16 16.46a7.61 7.61 0 0 1-1.1-4.46V6.15c-.02-1.11.11-2.22.4-3.3.26-.81.78-1.51 1.5-2 .88-.51 1.9-.75 2.92-.7 1.66 0 2.84.39 3.55 1.23a5.77 5.77 0 0 1 1.11 3.85v.62h-2.37V5.3c0-.65-.05-1.29-.16-1.93-.06-.4-.3-.76-.63-1a2.5 2.5 0 0 0-1.5-.38 2.42 2.42 0 0 0-1.58.46 1.75 1.75 0 0 0-.63 1.23c-.1.69-.16 1.38-.16 2.08v6.54c-.06 1 .1 2 .47 2.92.32.62.95.85 1.9.85a1.96 1.96 0 0 0 1.9-.93c.41-.97.6-2.02.55-3.07v-1.23h-2.3V9.08h4.59v8.69h-1.58l-.24-2c-.2.67-.64 1.25-1.22 1.66-.6.4-1.3.6-2.02.57a4.05 4.05 0 0 1-3.4-1.54zM95.68 11.62L91.8.3h2.37l2.76 8.46L99.63.3H102l-3.87 11.3v6.16h-2.37v-6.15h-.08z" fill="var(--fill, #111)"/>
  </svg>

</svg>
