<svg width="140" height="140" viewBox="0 0 140 140" fill="none" xmlns="http://www.w3.org/2000/svg">
<circle cx="70" cy="70" r="50" fill="#68B738"/>
<path d="M124.1 45.8C125.254 43.9631 126.789 42.3946 128.6 41.2C129.6 40.5 130.2 40.5 130.8 41.8C131.6 43.7 132.3 45.7 131.7 47.8C131.591 48.1562 131.57 48.5336 131.64 48.8995C131.71 49.2655 131.867 49.6089 132.1 49.9C132.7 50.7 133.2 51.5 133.7 52.2C134.38 53.0638 134.822 54.0913 134.98 55.1795C135.138 56.2678 135.007 57.3784 134.6 58.4C134.233 59.3918 134.163 60.4692 134.4 61.5C134.6 62.49 134.6 63.51 134.4 64.5C134.319 65.2414 134.019 65.9419 133.538 66.5119C133.057 67.0819 132.417 67.4956 131.7 67.7C130.421 67.9434 129.279 68.6569 128.5 69.7C128.405 69.8536 128.273 69.9803 128.115 70.0679C127.958 70.1555 127.78 70.201 127.6 70.2C126.4 70.4 123.4 67.7 123.4 66.5V65.9C123.5 62.3 123.3 62 120 60.5C119.309 60.2564 118.69 59.8439 118.2 59.3C117.6 58.5 116.8 58.6 115.9 58.9C115 59.2 114.5 59.8 114.6 60.8C114.901 63.2209 115.002 65.6626 114.9 68.1C114.907 68.3782 114.975 68.6514 115.1 68.9C118.2 73.4 119.4 78.7 120.9 83.8C122.1 87.7 124.3 89.8 128.3 90.1C128.94 90.1511 129.575 90.2514 130.2 90.4C131.022 90.532 131.785 90.9076 132.391 91.478C132.997 92.0485 133.418 92.7877 133.6 93.6C134.3 95.7 133.9 96.2 131.8 96.2H125.3C124.458 96.2426 123.633 95.9556 123 95.4C121.988 94.5459 120.838 93.8696 119.6 93.4C118.231 92.8947 117.046 91.9887 116.2 90.8C115.029 89.1635 113.688 87.6551 112.2 86.3C109.4 83.4 106.4 80.6 103.8 77.6C101.821 75.5558 100.679 72.8443 100.6 70C100.6 69.1 100.4 68.7 99.3999 69.1C99.1005 69.29 98.7545 69.3938 98.3999 69.4C95.5999 69.4 94.1999 71.1 93.1999 73.6C92.2999 75.7 91.0999 77.7 89.9999 79.8C89.3762 81.1145 89.0355 82.5454 88.9999 84C88.9999 86.4 89.5999 87.2 91.7999 88C93.1999 88.5 94.4999 89 95.1999 90.4C95.9999 92 95.7999 92.4 94.0999 92.5H87.2999C86.9079 92.5388 86.5136 92.4535 86.1727 92.2562C85.8317 92.0588 85.5614 91.7593 85.3999 91.4L83.5999 88.4C83.0693 87.6172 82.7296 86.721 82.6081 85.7832C82.4865 84.8454 82.5865 83.8922 82.8999 83C83.3327 81.2635 83.3669 79.4516 82.9999 77.7C82.7478 76.4801 82.7696 75.2195 83.0635 74.009C83.3575 72.7986 83.9164 71.6684 84.6999 70.7C85.2999 70 85.2999 69.7 84.2999 69.5C80.2108 68.6314 76.2466 67.254 72.4999 65.4C72.4734 65.4 72.448 65.3895 72.4292 65.3707C72.4105 65.352 72.3999 65.3265 72.3999 65.3C69.1999 64.1 68.5999 64.3 67.6999 67.6C66.8999 70.4 66.0999 73.2 65.4999 76.1C64.7999 79.3 65.5999 82.3 66.5999 85.3C66.9999 86.5 68.1999 86.4 69.0999 86.7C71.0999 87.3 72.7999 88.1 73.5999 90.2C74.2999 91.8 74.1999 92 72.4999 92C70.7999 92 69.0999 91.9 67.2999 92C65.781 92.0275 64.2985 91.5334 63.0999 90.6C58.2999 87.4 56.8999 82.5 56.4999 77.2C56.2999 73.9 54.4999 71.3 52.3999 68.8C51.9999 68.3 51.5999 68.1 50.9999 68.5C48.8534 69.6836 46.6124 70.687 44.2999 71.5C39.4742 73.204 35.2395 76.2585 32.0999 80.3C30.9276 81.775 30.1683 83.5351 29.8999 85.4C29.5999 87.2 30.0999 88 31.8999 88.5C33.6999 89 34.5999 90 34.7999 91.9C34.8999 92.7 34.5999 93.1 33.7999 93.1H25.6999C25.4348 93.0812 25.1782 92.9987 24.9518 92.8594C24.7255 92.7201 24.5362 92.5282 24.3999 92.3C23.1438 90.7448 22.4716 88.799 22.4999 86.8C22.4474 83.3449 22.749 79.8936 23.3999 76.5C23.5334 75.4837 23.9128 74.5153 24.5053 73.6788C25.0978 72.8424 25.8855 72.1631 26.7999 71.7C32.6999 68.9 35.7999 63.6 38.5999 58.1C39.1999 57 38.6999 56.8 37.6999 56.9C34.9013 57.2885 32.2496 58.3905 29.9999 60.1C27.0541 62.2488 24.2791 64.6226 21.6999 67.2C18.9496 69.9937 15.3026 71.7286 11.3999 72.1C4.09992 72.5 0.699919 68.4 0.999919 61.8C1.06698 59.5496 1.91557 57.3928 3.39992 55.7C3.91594 55.031 4.61965 54.531 5.42119 54.2638C6.22272 53.9966 7.0857 53.9744 7.89992 54.2C9.39992 54.6 9.79992 55.4 9.19992 56.9C8.89992 57.5 8.49992 58 8.19992 58.6C7.76852 59.213 7.43144 59.8871 7.19992 60.6C6.09992 63.6 7.59992 65.7 10.6999 66C13.9999 66.3 16.6999 64.9 19.1999 62.9C22.2118 60.4882 24.9006 57.6986 27.1999 54.6C28.9192 52.3374 31.084 50.4513 33.5607 49.0581C36.0375 47.665 38.7735 46.7943 41.5999 46.5C43.8999 46.2 45.8999 45.2 48.0999 44.6C52.2144 43.3456 56.4989 42.7384 60.7999 42.8C62.792 42.883 64.7765 42.5066 66.5999 41.7C71.4999 39.7 76.5999 39.7 81.6999 40.7C85.6999 41.5 89.6999 42.5 93.5999 43.5C95.9209 43.9325 98.3074 43.8643 100.6 43.3C104.989 42.1875 109.478 41.5175 114 41.3C116.962 41.1559 119.915 41.7395 122.6 43C124.6 43.9 124.6 43.9 124.1 45.8Z" fill="black"/>
</svg>
