<svg width="80" height="80" viewBox="0 0 80 80" fill="none" xmlns="http://www.w3.org/2000/svg">
<path d="M66.0156 34.7127H16.031C14.2766 34.7127 12.8494 33.2951 12.8494 31.5524V22.0842C12.8494 20.3415 14.2766 18.9233 16.031 18.9233H66.0149C67.7687 18.9233 69.1953 20.3415 69.1953 22.0842V31.553C69.1959 33.2951 67.7693 34.7127 66.0156 34.7127ZM16.031 21.3455C15.6276 21.3455 15.2869 21.684 15.2869 22.0842V31.553C15.2869 31.9599 15.6208 32.2912 16.031 32.2912H66.0149C66.4244 32.2912 66.7578 31.9599 66.7578 31.553V22.0842C66.7578 21.6834 66.4171 21.3455 66.0149 21.3455H16.031Z" fill="white"/>
<path d="M59.0447 67.1488H22.999C19.6218 67.1488 16.8741 64.4191 16.8741 61.0626V33.5016C16.8741 32.8331 17.4201 32.2905 18.0929 32.2905C18.7656 32.2905 19.3116 32.8331 19.3116 33.5016V61.0626C19.3116 63.0833 20.9661 64.7267 22.999 64.7267H59.0447C61.077 64.7267 62.7308 63.0833 62.7308 61.0626V33.5016C62.7308 32.8331 63.2768 32.2905 63.9496 32.2905C64.6223 32.2905 65.1683 32.8331 65.1683 33.5016V61.0626C65.1683 64.4191 62.4213 67.1488 59.0447 67.1488Z" fill="white"/>
<path d="M41.0225 67.1488C40.3498 67.1488 39.8038 66.6069 39.8038 65.9378V33.5016C39.8038 32.8331 40.3498 32.2905 41.0225 32.2905C41.6953 32.2905 42.2413 32.8331 42.2413 33.5016V65.9372C42.2413 66.6069 41.6959 67.1488 41.0225 67.1488Z" fill="white"/>
<path d="M25.8113 21.3414C21.9966 19.2874 20.5731 14.5327 22.6383 10.7415C24.7022 6.95201 29.4864 5.53687 33.303 7.58721C39.117 10.7166 42.2565 19.4472 42.3869 19.8172L40.0877 20.6208C40.0585 20.5384 37.1256 12.3994 32.1433 9.71749C29.5078 8.30175 26.2062 9.27908 24.7821 11.8944C23.3567 14.5121 24.339 17.7941 26.9734 19.2117L25.8113 21.3414Z" fill="white"/>
<path d="M56.2313 21.3413L55.071 19.2111C56.3477 18.5238 57.2782 17.3848 57.6926 16.0035C58.1063 14.6217 57.9534 13.1624 57.2617 11.895C56.5719 10.6264 55.4263 9.70233 54.0363 9.29117C52.6457 8.88001 51.1783 9.0314 49.9023 9.71747C44.9201 12.3988 41.9871 20.5378 41.9579 20.6202L39.6587 19.8166C39.7891 19.4466 42.928 10.716 48.7421 7.58719C50.5897 6.5929 52.7182 6.3737 54.7316 6.96955C56.7468 7.56479 58.4061 8.90484 59.4061 10.7414C60.4073 12.5774 60.6285 14.6913 60.0289 16.6939C59.4287 18.6958 58.0801 20.3458 56.2313 21.3413Z" fill="white"/>
<path d="M63.9496 50.9314H18.0929C17.4201 50.9314 16.8741 50.3889 16.8741 49.7204C16.8741 49.0518 17.4201 48.5093 18.0929 48.5093H63.9496C64.6223 48.5093 65.1683 49.0518 65.1683 49.7204C65.1683 50.3889 64.6229 50.9314 63.9496 50.9314Z" fill="white"/>
</svg>
