<svg width="32" height="32" viewBox="0 0 32 32" fill="none" xmlns="http://www.w3.org/2000/svg">
<path d="M16.4775 4.08984C18.3942 4.08984 19.959 4.1123 21.1719 4.15723C22.2051 4.20215 23.126 4.38184 23.9346 4.69629C24.7132 4.99577 25.387 5.43001 25.9561 5.99902C26.5251 6.56803 26.9593 7.24186 27.2588 8.02051C27.5732 8.8291 27.7529 9.75 27.7979 10.7832C27.8428 11.9961 27.8652 13.5609 27.8652 15.4775C27.8652 17.3942 27.8428 18.959 27.7979 20.1719C27.7529 21.2051 27.5732 22.126 27.2588 22.9346C26.9593 23.7132 26.5251 24.387 25.9561 24.9561C25.387 25.5251 24.7132 25.9593 23.9346 26.2588C23.126 26.5732 22.2051 26.7529 21.1719 26.7978C19.959 26.8428 18.3942 26.8652 16.4775 26.8652C14.5609 26.8652 12.9961 26.8428 11.7832 26.7978C10.75 26.7529 9.8291 26.5732 9.02051 26.2588C8.24186 25.9593 7.56803 25.5251 6.99902 24.9561C6.43001 24.387 5.99577 23.7132 5.69629 22.9346C5.38184 22.126 5.20215 21.2051 5.15723 20.1719C5.1123 18.959 5.08984 17.3942 5.08984 15.4775C5.08984 13.5609 5.1123 11.9961 5.15723 10.7832C5.20215 9.75 5.38184 8.8291 5.69629 8.02051C5.99577 7.24186 6.43001 6.56803 6.99902 5.99902C7.56803 5.43001 8.24186 4.99577 9.02051 4.69629C9.8291 4.38184 10.75 4.20215 11.7832 4.15723C12.9961 4.1123 14.5609 4.08984 16.4775 4.08984ZM16.4775 5.57227C14.486 5.57227 12.8613 5.59473 11.6035 5.63965C10.7949 5.6696 10.0462 5.81185 9.35742 6.06641C8.2793 6.51562 7.51562 7.2793 7.06641 8.35742C6.81185 9.04622 6.6696 9.79492 6.63965 10.6035C6.59473 11.8613 6.57227 13.486 6.57227 15.4775C6.57227 17.4691 6.59473 19.0937 6.63965 20.3516C6.6696 21.1602 6.81185 21.9089 7.06641 22.5977C7.51562 23.6758 8.2793 24.4395 9.35742 24.8887C10.0462 25.1432 10.7949 25.2855 11.6035 25.3154C12.8613 25.3603 14.486 25.3828 16.4775 25.3828C18.4691 25.3828 20.0938 25.3603 21.3516 25.3154C22.1602 25.2855 22.9089 25.1432 23.5977 24.8887C24.6758 24.4395 25.4395 23.6758 25.8887 22.5977C26.1432 21.9089 26.2855 21.1602 26.3154 20.3516C26.3604 19.0937 26.3828 17.4691 26.3828 15.4775C26.3828 13.486 26.3604 11.8613 26.3154 10.6035C26.2855 9.79492 26.1432 9.04622 25.8887 8.35742C25.4395 7.2793 24.6758 6.51562 23.5977 6.06641C22.9089 5.81185 22.1602 5.6696 21.3516 5.63965C20.0938 5.59473 18.4691 5.57227 16.4775 5.57227ZM16.4775 20.0371C17.7354 20.0371 18.8097 19.5916 19.7007 18.7007C20.5916 17.8097 21.0371 16.7354 21.0371 15.4775C21.0371 14.2197 20.5916 13.1453 19.7007 12.2544C18.8097 11.3634 17.7354 10.918 16.4775 10.918C15.2197 10.918 14.1453 11.3634 13.2544 12.2544C12.3634 13.1453 11.918 14.2197 11.918 15.4775C11.918 16.7354 12.3634 17.8097 13.2544 18.7007C14.1453 19.5916 15.2197 20.0371 16.4775 20.0371ZM16.4775 9.63769C18.0947 9.63769 19.4723 10.2067 20.6104 11.3447C21.7484 12.4827 22.3174 13.8604 22.3174 15.4775C22.3174 17.0947 21.7484 18.4723 20.6104 19.6104C19.4723 20.7484 18.0947 21.3174 16.4775 21.3174C14.8604 21.3174 13.4827 20.7484 12.3447 19.6104C11.2067 18.4723 10.6377 17.0947 10.6377 15.4775C10.6377 13.8604 11.2067 12.4827 12.3447 11.3447C13.4827 10.2067 14.8604 9.63769 16.4775 9.63769ZM23.9346 9.41309C23.9346 9.78743 23.7998 10.1056 23.5303 10.3677C23.2607 10.6297 22.9313 10.7607 22.542 10.7607C22.1676 10.7607 21.8494 10.6297 21.5874 10.3677C21.3254 10.1056 21.1943 9.78743 21.1943 9.41309C21.1943 9.02376 21.3254 8.69434 21.5874 8.4248C21.8494 8.15527 22.1676 8.02051 22.542 8.02051C22.9163 8.02051 23.242 8.15902 23.519 8.43603C23.7961 8.71305 23.9346 9.03874 23.9346 9.41309Z" fill="#666666"/>
</svg>
