<svg width="32" height="32" viewBox="0 0 32 32" fill="none" xmlns="http://www.w3.org/2000/svg">
<path d="M1.09143 10.4899C1.09143 9.63485 1.64333 9.17381 2.74712 9.10674L7.00052 9.13189C7.28599 9.13189 7.47629 9.25763 7.57145 9.50911C8.00916 10.7665 8.4992 11.8521 9.04158 12.7658C9.58397 13.6795 10.2929 14.7315 11.1683 15.9218C11.2444 16.0727 11.3681 16.1482 11.5394 16.1482C11.6726 16.1482 11.7773 16.0895 11.8534 15.9721L11.939 15.6955L11.9676 11.3449C11.9676 11.0431 11.8867 10.842 11.7249 10.7414C11.5632 10.6408 11.2634 10.5653 10.8257 10.515C10.4832 10.4647 10.3119 10.2803 10.3119 9.96177C10.3119 9.89471 10.3214 9.84442 10.3404 9.81089C10.7401 8.72114 11.8819 8.17627 13.766 8.17627L15.3646 8.15112C16.0878 8.15112 16.6872 8.31039 17.163 8.62893C17.6388 8.94747 17.8767 9.45043 17.8767 10.1378V15.8464C18.0099 15.9302 18.1336 15.9721 18.2478 15.9721C18.5332 15.9721 18.7806 15.8212 18.99 15.5195C21.0834 12.9376 22.2157 11.2108 22.387 10.339C22.387 10.3222 22.406 10.2803 22.4441 10.2133C22.5773 9.96177 22.7962 9.74383 23.1007 9.55941C23.4051 9.37499 23.6716 9.24925 23.9 9.18219C23.9761 9.14866 24.0617 9.13189 24.1569 9.13189H28.5816L28.867 9.15704C29.2476 9.15704 29.5426 9.31631 29.752 9.63485C29.8281 9.73544 29.8804 9.84442 29.909 9.96177C29.9375 10.0791 29.9565 10.1965 29.966 10.3138C29.9756 10.4312 29.9803 10.4983 29.9803 10.515V10.6911C29.8471 11.3784 29.5093 12.1119 28.9669 12.8915C28.4245 13.6711 27.7347 14.5135 26.8973 15.4189C26.06 16.3242 25.5366 16.9194 25.3273 17.2044C25.156 17.4056 25.0704 17.59 25.0704 17.7576C25.0704 17.8918 25.1465 18.0426 25.2987 18.2103L29.4665 22.8375C29.6949 23.1058 29.809 23.3992 29.809 23.7177C29.809 24.1033 29.6378 24.4218 29.2952 24.6733C28.9527 24.9248 28.5435 25.0673 28.0677 25.1008L27.5824 25.126H23.2434C23.2244 25.126 23.1863 25.1302 23.1292 25.1385C23.0721 25.1469 23.034 25.1511 23.015 25.1511C22.5963 25.1511 22.2062 24.9919 21.8446 24.6733C21.7114 24.5392 20.8169 23.55 19.1613 21.7059C19.0661 21.5885 18.9329 21.4795 18.7616 21.3789C18.6855 21.6472 18.5856 22.0328 18.4619 22.5357C18.3382 23.0387 18.2478 23.3992 18.1907 23.6171L18.105 24.0446C17.9147 24.6314 17.5151 24.9835 16.9061 25.1008L16.5065 25.126H13.7089C12.1293 25.126 10.5545 24.4889 8.98449 23.2147C7.41444 21.9406 6.0014 20.2934 4.74536 18.2732C3.48932 16.2529 2.31892 13.9016 1.23416 11.2192C1.13901 11.0012 1.09143 10.7581 1.09143 10.4899ZM18.2478 17.0032C17.8481 17.0032 17.4865 16.9068 17.163 16.714C16.8395 16.5212 16.6777 16.2571 16.6777 15.9218V10.1378C16.6777 9.8025 16.5826 9.5636 16.3923 9.42109C16.202 9.27859 15.8689 9.20734 15.3931 9.20734L13.766 9.25763C12.9477 9.25763 12.3292 9.38337 11.9105 9.63485C12.7479 9.98692 13.1665 10.5569 13.1665 11.3449V15.7709C13.1285 16.1901 12.9382 16.538 12.5956 16.8146C12.253 17.0912 11.8724 17.2295 11.4538 17.2295C10.8828 17.2295 10.4451 16.9864 10.1406 16.5002C8.65621 14.5219 7.55242 12.6442 6.82924 10.8671L6.57233 10.2133L2.77566 10.1881C2.52826 10.1881 2.39029 10.2007 2.36174 10.2258C2.3332 10.251 2.31892 10.3222 2.31892 10.4396C2.31892 10.5905 2.33795 10.7497 2.37602 10.9174L2.97549 12.3257C4.57408 15.9637 6.31065 18.8306 8.18519 20.9263C10.0597 23.0219 11.901 24.0698 13.7089 24.0698H16.5635C16.6777 24.0698 16.7634 24.0404 16.8205 23.9817C16.8776 23.9231 16.9251 23.8099 16.9632 23.6422L17.0203 23.3908L17.5627 21.1778C17.7149 20.876 17.8481 20.6748 17.9623 20.5742C18.1717 20.3898 18.4191 20.2976 18.7045 20.2976C19.1613 20.2976 19.6275 20.5407 20.1033 21.0269L22.5297 23.7428C22.682 23.9608 22.8437 24.0698 23.015 24.0698H27.7252C28.2961 24.0698 28.5816 23.944 28.5816 23.6925C28.5816 23.6087 28.553 23.5249 28.4959 23.4411L24.3567 18.8893C24.0332 18.5372 23.8714 18.16 23.8714 17.7576C23.8714 17.3553 24.0237 16.9697 24.3281 16.6008C24.5755 16.2655 25.0561 15.7081 25.7697 14.9285C26.4834 14.1489 27.1067 13.4196 27.6395 12.7406C28.1724 12.0616 28.5245 11.4455 28.6957 10.8922L28.7814 10.5653C28.7623 10.5318 28.7528 10.4773 28.7528 10.4019C28.7528 10.3264 28.7433 10.2635 28.7243 10.2133H24.2425C23.957 10.3138 23.7287 10.4647 23.5574 10.6659L23.3861 11.1437C22.9103 12.3005 21.6638 14.086 19.6465 16.5002C19.2469 16.8355 18.7806 17.0032 18.2478 17.0032Z" fill="#666666"/>
</svg>
